<?xml version="1.0" encoding="utf-8"?>
<!-- Generator: Adobe Illustrator 17.0.0, SVG Export Plug-In . SVG Version: 6.00 Build 0)  -->
<!DOCTYPE svg PUBLIC "-//W3C//DTD SVG 1.1//EN" "http://www.w3.org/Graphics/SVG/1.1/DTD/svg11.dtd">
<svg version="1.1" id="Layer_1" xmlns="http://www.w3.org/2000/svg" xmlns:xlink="http://www.w3.org/1999/xlink" x="0px" y="0px"
	 width="500px" height="82.5px" viewBox="0 0 500 82.5" enable-background="new 0 0 500 82.5" xml:space="preserve">
<rect x="117.278" y="61.018" fill="#FFFFFF" width="20.748" height="6.72"/>
<g>
	<g>
		<path fill="#FFFFFF" d="M496.009,61.018V38.002c0-6.72-4.513-10.08-10.08-10.08h-4.648c-3.108,0.207-7.265,2.828-9.744,6.078
			v-5.686h-6.944h-6.048v6.72h6.048v25.984h-6.048v6.72h18.732v-6.72h-5.74V38.114c1.008-2.24,4.256-3.528,6.552-3.472h7.168
			c2.798,0,3.36,1.286,3.36,3.36v19.656c0,0.1-0.001,1.818-0.003,3.36h-5.541v6.72h17.052v-6.72H496.009z"/>
		<path fill="#FFFFFF" d="M149.702,19.27c-1.26-3.276-2.856-3.276-2.856-3.276h-4.452h-0.672h-2.772c0,0-1.596,0-2.856,3.276
			l-14.7,45.864l7.98-0.756l3.946-12.684h18.456l2.922,9.324h-7.431v6.72h20.748v-6.72h-4.931L149.702,19.27z M135.358,45.142
			l7.155-23.003l7.209,23.003H135.358z"/>
		<path fill="#FFFFFF" d="M183.638,61.69c-2.184,0.084-2.352-2.1-2.352-2.1V34.726h9.744v-6.72h-9.744V18.01h-7.308v9.996h-5.964
			v6.72h5.964V59.59c0,0-0.336,8.828,6.888,8.736c0.945-0.012,4.677,0.367,10.222-1.985l0.055-4.596
			C191.143,61.746,184.297,61.665,183.638,61.69z"/>
		<path fill="#FFFFFF" d="M211.191,61.69c-2.184,0.084-2.352-2.1-2.352-2.1V34.726h9.744v-6.72h-9.744V18.01h-7.308v9.996h-5.964
			v6.72h5.964V59.59c0,0-0.336,8.828,6.888,8.736c0.946-0.012,4.677,0.367,10.222-1.985l0.055-4.596
			C218.695,61.746,211.849,61.665,211.191,61.69z"/>
		<path fill="#FFFFFF" d="M383.056,61.69c-2.184,0.084-2.352-2.1-2.352-2.1V34.726h9.744v-6.72h-9.744V18.01h-7.308v9.996h-5.964
			v6.72h5.964V59.59c0,0-0.336,8.828,6.888,8.736c0.945-0.012,4.677,0.367,10.221-1.985l0.055-4.596
			C390.56,61.746,383.715,61.665,383.056,61.69z"/>
		<polygon fill="#FFFFFF" points="268.339,35.034 268.339,33.69 268.339,28.314 254.423,28.314 254.423,35.034 260.835,35.034 
			260.835,61.018 254.423,61.018 254.423,67.738 274.611,67.738 274.611,61.018 268.339,61.018 		"/>
		<path fill="#FFFFFF" d="M236.671,33.805V33.69v-5.376h-13.916v6.72h6.412v25.984h-6.412v6.72h20.188v-6.72h-6.272V37.407
			c4.336-1.72,8.54-1.505,8.54-1.505h4.872v-7.98h-4.872C242.025,27.922,239.109,31.026,236.671,33.805z"/>
		<rect x="259.827" y="14.482" fill="#FFFFFF" width="8.736" height="8.484"/>
		<polygon fill="#FFFFFF" points="410.132,35.034 410.132,33.69 410.132,28.314 396.216,28.314 396.216,35.034 402.628,35.034 
			402.628,61.018 396.216,61.018 396.216,67.738 416.404,67.738 416.404,61.018 410.132,61.018 		"/>
		<rect x="401.62" y="14.482" fill="#FFFFFF" width="8.736" height="8.484"/>
		<path fill="#FFFFFF" d="M308.043,27.922h-5.88c-3.424,0-7.022,2.107-9.576,5.125V21.37v-0.84v-5.88h-13.944v6.72h6.384v39.648
			h-6.384v6.72h13.944V65.47v-2.613c2.211,2.649,5.207,4.662,8.484,4.881h6.972c5.567,0,10.08-3.36,10.08-10.08V38.002
			C318.124,31.03,313.611,27.922,308.043,27.922z M310.731,57.658c0,2.074-0.562,3.36-3.36,3.36h-8.568
			c-1.452,0-4.015-0.283-6.216-2.101v-21.86c1.881-1.296,4.967-2.415,6.216-2.415h8.568c2.857,0,3.36,1.083,3.36,3.36V57.658z"/>
		<path fill="#FFFFFF" d="M360.32,34.642v-0.616v-6.104h-13.888v6.72h6.944v23.296c-1.008,2.24-4.256,3.528-6.552,3.472h-7.168
			c-2.798,0-3.36-1.286-3.36-3.36V38.394c0-0.286,0.008-5.93,0.028-6.178c-0.02-0.008-0.036-0.014-0.056-0.023v-4.271h-13.356v6.72
			h5.992V58.05c0,6.72,4.513,10.08,10.08,10.08h4.648c3.108-0.207,7.265-2.828,9.744-6.078v5.686h6.944h6.048v-6.72h-6.048V34.642z"
			/>
		<path fill="#FFFFFF" d="M443.285,28.118h-2.688h-2.94h-7.392c-5.567,0-10.08,3.108-10.08,10.08v19.656
			c0,6.72,4.513,10.08,10.08,10.08h7.392h1.596h4.032c5.567,0,10.08-3.36,10.08-10.08V38.198
			C453.365,31.226,448.852,28.118,443.285,28.118z M445.973,57.854c0,2.074-0.562,3.36-3.36,3.36h-2.688h-2.268h-6.72
			c-2.798,0-3.36-1.286-3.36-3.36V38.198c0-2.277,0.503-3.36,3.36-3.36h6.72h2.268h2.688c2.857,0,3.36,1.083,3.36,3.36V57.854z"/>
	</g>
</g>
<g>
	<g>
		<circle fill="#FFFFFF" cx="67.662" cy="64.378" r="17.136"/>
		<path fill="#FFFFFF" d="M63.152,28.546c2.437-3.139,4.173-6.923,4.173-11.208c0-9.464-7.672-17.136-17.136-17.136
			c-5.773,0-9.674,2.666-13.129,6.123c-9.437,9.442,3.633,28.249-26.027,42.874c-0.761,0.297-1.496,0.647-2.2,1.045l0,0l0,0
			c-5.198,2.943-8.708,8.519-8.708,14.918c0,9.464,7.672,17.136,17.136,17.136s17.136-7.672,17.136-17.136
			c0-0.508-0.009-2.144,0.025-2.458C37.264,36.511,57.986,35.202,63.152,28.546z"/>
	</g>
</g>
</svg>
